<?xml version="1.0" standalone="no"?>
<!DOCTYPE svg PUBLIC "-//W3C//DTD SVG 20010904//EN"
 "http://www.w3.org/TR/2001/REC-SVG-20010904/DTD/svg10.dtd">
<svg version="1.0" xmlns="http://www.w3.org/2000/svg"
 width="1446.000000pt" height="2210.000000pt" viewBox="0 0 1446.000000 2210.000000"
 preserveAspectRatio="xMidYMid meet">

<g transform="translate(0.000000,2210.000000) scale(0.100000,-0.100000)"
fill="#000000" stroke="none">
<path d="M6865 22079 c-1498 -121 -2908 -924 -4081 -2324 -1438 -1717 -2401
-4205 -2688 -6945 -157 -1498 -113 -3020 130 -4485 609 -3673 2429 -6633 4789
-7790 984 -482 1997 -636 3035 -459 802 136 1624 502 2349 1047 2259 1696
3776 5036 4021 8852 43 679 41 1534 -5 2220 -189 2780 -1064 5350 -2449 7190
-491 653 -1075 1237 -1656 1655 -858 617 -1783 969 -2740 1040 -155 11 -558
11 -705 -1z m820 -187 c490 -76 934 -249 1380 -539 678 -442 1336 -1168 1874
-2070 1552 -2603 2229 -6552 1785 -10428 -393 -3436 -1688 -6337 -3411 -7637
-699 -528 -1464 -784 -2208 -739 -225 14 -383 38 -580 87 -784 198 -1545 720
-2217 1521 -1256 1500 -2156 3893 -2492 6633 -57 457 -106 1024 -121 1380 -3
74 -8 155 -11 180 l-6 44 44 -37 c171 -146 392 -248 642 -296 128 -25 213 -26
332 -6 285 50 537 200 665 395 62 95 77 211 37 290 -33 65 -88 90 -220 100
-174 14 -332 91 -463 224 -74 76 -98 122 -103 205 -6 91 12 160 74 286 65 131
152 251 277 379 83 84 99 96 157 115 146 47 351 70 513 56 l87 -7 0 -3521 0
-3522 -233 -199 c-137 -117 -243 -215 -258 -240 -75 -121 -77 -246 -5 -341
l27 -35 1149 0 1148 0 29 48 c16 26 34 59 40 73 9 21 105 80 427 264 400 228
416 239 422 271 15 78 -102 212 -285 324 -58 36 -120 83 -146 113 -203 225
-325 954 -313 1877 l4 305 47 250 c114 603 216 997 314 1218 30 67 30 67 164
33 172 -44 366 -143 556 -284 112 -84 378 -349 473 -472 300 -392 493 -811
626 -1360 27 -112 27 -124 31 -455 l4 -340 -71 -75 c-180 -189 -246 -328 -188
-397 34 -42 51 -43 683 -43 l605 0 0 43 c0 52 -31 179 -59 242 -27 61 -103
140 -157 162 l-44 18 0 2356 0 2356 56 84 c67 99 102 174 111 234 5 37 2 47
-19 68 -47 47 -232 72 -478 64 -492 -15 -968 -186 -1423 -511 -297 -212 -627
-557 -870 -910 -117 -169 -98 -155 -192 -145 -191 19 -497 5 -713 -32 -63 -10
-116 -19 -118 -19 -2 0 -4 531 -4 1179 l0 1180 123 -59 c159 -76 381 -165 587
-233 1152 -385 2293 -392 3271 -21 64 24 119 44 123 44 3 0 6 -1470 6 -3266
l0 -3265 -235 -252 c-226 -242 -237 -255 -256 -317 -42 -134 -41 -261 1 -320
l21 -30 1135 0 1134 0 31 42 c53 73 79 137 79 200 0 101 -20 129 -168 240
-106 79 -223 187 -294 271 l-48 58 0 4752 0 4751 235 236 235 236 0 115 c0
143 -16 205 -65 248 l-36 31 -421 0 -421 0 7 53 c3 28 9 162 12 297 9 324 -12
585 -66 845 -135 651 -774 1379 -1815 2070 -332 220 -492 310 -665 374 -610
226 -1111 508 -1360 767 -130 135 -198 246 -220 360 -10 51 -9 71 5 129 69
272 265 450 608 549 125 36 240 54 428 68 500 35 835 -105 866 -362 11 -92
-28 -222 -99 -334 -31 -47 -31 -50 -20 -104 20 -95 72 -150 183 -194 68 -27
269 -36 391 -18 95 13 140 36 221 110 232 212 273 536 113 885 -36 78 -83 125
-220 224 -401 289 -892 425 -1376 382 -433 -39 -857 -166 -1228 -368 -124 -67
-202 -140 -325 -300 -261 -342 -376 -650 -364 -973 12 -320 150 -604 429 -881
207 -205 513 -412 803 -544 653 -295 1685 -902 2090 -1228 303 -243 523 -528
686 -887 60 -131 87 -238 109 -435 11 -102 13 -332 4 -424 l-7 -61 -228 0
-227 0 -50 -56 c-175 -196 -157 -365 50 -474 92 -48 188 -113 228 -155 l35
-36 -53 -105 c-334 -655 -986 -1073 -1804 -1155 -185 -18 -662 -7 -813 19
-303 53 -540 140 -837 308 -187 106 -359 251 -469 397 l-59 78 0 160 0 159
234 200 c215 184 235 204 254 252 59 149 57 252 -6 336 -53 73 -48 72 -425 72
l-338 0 7 48 c34 235 140 472 278 620 140 151 477 333 771 418 198 57 341 77
560 77 201 0 297 -11 494 -58 143 -35 177 -52 265 -136 273 -258 339 -611 178
-938 -47 -97 -120 -172 -209 -213 -59 -28 -81 -33 -169 -36 -183 -7 -369 58
-431 151 -66 98 -68 193 -7 330 63 142 57 235 -18 303 l-41 37 -131 -5 c-104
-4 -147 -11 -212 -32 -211 -68 -345 -227 -395 -472 -18 -83 -20 -124 -16 -254
3 -134 8 -166 31 -233 100 -296 295 -493 591 -600 239 -85 604 -106 899 -51
156 29 374 133 535 254 103 78 245 228 315 333 304 457 292 1078 -32 1561
-151 225 -571 493 -972 620 -560 178 -1143 129 -1695 -143 -351 -173 -667
-423 -785 -621 -165 -277 -295 -589 -355 -855 l-22 -100 -463 -5 -464 -5 -37
-69 c-47 -87 -64 -172 -49 -239 26 -118 42 -137 317 -374 l203 -176 0 -727 0
-728 -117 -6 c-555 -32 -1043 -180 -1411 -428 -189 -128 -390 -330 -499 -504
-12 -21 -13 -45 13 386 135 2269 664 4420 1500 6105 983 1981 2307 3158 3734
3320 179 20 572 13 745 -13z m1458 -9350 c-48 -40 -263 -140 -388 -181 -327
-107 -651 -147 -1105 -138 -721 14 -1504 187 -2412 532 l-178 68 0 215 c0 170
3 212 13 205 178 -139 266 -197 396 -262 255 -129 617 -254 921 -320 688 -149
1317 -104 1889 135 285 120 589 319 811 531 l75 71 3 -416 2 -417 -27 -23z
m-1205 -3867 l-3 -646 -92 130 c-51 71 -143 192 -205 268 -135 165 -464 498
-600 606 -188 150 -399 281 -550 343 -54 22 -65 30 -58 43 20 38 254 305 378
433 382 392 758 651 1057 728 l70 18 3 -638 c1 -351 1 -929 0 -1285z m-2231
431 c2 -2 -16 -48 -40 -102 -63 -140 -128 -315 -181 -486 -341 -1098 -365
-2353 -70 -3589 26 -107 33 -155 27 -177 l-8 -31 -187 132 -187 132 0 2043
c-1 1123 2 2042 7 2042 4 0 41 7 82 16 123 26 226 33 394 28 88 -2 161 -6 163
-8z"/>
</g>
</svg>
